# xmcd
#
# Track frame offsets:
#	150
#	12770
#	27562
#	38372
#	54072
#	73187
#	95540
#	114382
#	125685
#	139912
#	156592
#	173522
#	190155
#	212952
#
# Disc length: 3042
#
# Revision: 4
# Processed by: cddbd v1.5.1PL0 Copyright (c) Steve Scherf et al.
# Submitted via: CDex 1.51
# Normalized: r2:TSWAP
#
DISCID=bf0be00e
DTITLE=Various Artist - Spirit Of Country Christmas
DYEAR=1998
DGENRE=Christmas
TTITLE0=Sammy Kershaw - Frosty the Snowman
TTITLE1=John Anderson - The Christmas Song (Chestnuts Roasting on an Open Fire)
TTITLE2=Randy Travis - Winter Wonderland
TTITLE3=Suzy Boggus - The First Noel
TTITLE4=Keith Whitley - There's a New Kid in Town
TTITLE5=Ricky Skaggs - O Come All Ye Faithful
TTITLE6=Shenandoah - Have Yourself a Merry Little Christmas
TTITLE7=Willie Nelson - Away in a Manger
TTITLE8=Ricky Van Shelton - What Child is This
TTITLE9=Emmylou Harris - O Little Town of Bethlehem
TTITLE10=Restless Heart - Little Drummer Boy
TTITLE11=Lorrie Morgan - Christmas at Our House
TTITLE12=Sawyer Brown - Angels We Have Heard on High
TTITLE13=Alabama - Christmas is Love
EXTD=YEAR: 1998
EXTT0=
EXTT1=
EXTT2=
EXTT3=
EXTT4=
EXTT5=
EXTT6=
EXTT7=
EXTT8=
EXTT9=
EXTT10=
EXTT11=
EXTT12=
EXTT13=
PLAYORDER=
